<svg width="16" height="14" viewBox="0 0 16 14" fill="none" xmlns="http://www.w3.org/2000/svg">
<path d="M13.4609 1.67456C13.1204 1.33389 12.7161 1.06365 12.2711 0.879279C11.8261 0.694904 11.3492 0.600006 10.8675 0.600006C10.3859 0.600006 9.90894 0.694904 9.46396 0.879279C9.01899 1.06365 8.6147 1.33389 8.2742 1.67456L7.56753 2.38122L6.86087 1.67456C6.17307 0.986762 5.24022 0.600363 4.26753 0.600363C3.29484 0.600363 2.36199 0.986762 1.6742 1.67456C0.986405 2.36235 0.600006 3.2952 0.600006 4.26789C0.600006 5.24058 0.986405 6.17343 1.6742 6.86122L2.38087 7.56789L7.56753 12.7546L12.7542 7.56789L13.4609 6.86122C13.8015 6.52072 14.0718 6.11643 14.2561 5.67146C14.4405 5.22649 14.5354 4.74955 14.5354 4.26789C14.5354 3.78623 14.4405 3.30929 14.2561 2.86432C14.0718 2.41935 13.8015 2.01506 13.4609 1.67456Z" stroke="#EAEAEA" stroke-width="1.2" stroke-linecap="round" stroke-linejoin="round"/>
</svg>
